<svg width="50" height="50" viewBox="0 0 50 50" fill="none" xmlns="http://www.w3.org/2000/svg">
<rect width="50" height="50" fill="#CA1156"/>
<g clip-path="url(#clip0_26_10)">
<path d="M16.5 10.375C15.8812 10.375 15.375 10.8812 15.375 11.5V38.5C15.375 39.1188 15.8812 39.625 16.5 39.625H22.125V35.125C22.125 33.2617 23.6367 31.75 25.5 31.75C27.3633 31.75 28.875 33.2617 28.875 35.125V39.625H34.5C35.1187 39.625 35.625 39.1188 35.625 38.5V11.5C35.625 10.8812 35.1187 10.375 34.5 10.375H16.5ZM12 11.5C12 9.01797 14.018 7 16.5 7H34.5C36.982 7 39 9.01797 39 11.5V38.5C39 40.982 36.982 43 34.5 43H16.5C14.018 43 12 40.982 12 38.5V11.5ZM18.1875 14.3125C18.1875 13.6937 18.6937 13.1875 19.3125 13.1875H22.6875C23.3062 13.1875 23.8125 13.6937 23.8125 14.3125V17.6875C23.8125 18.3062 23.3062 18.8125 22.6875 18.8125H19.3125C18.6937 18.8125 18.1875 18.3062 18.1875 17.6875V14.3125ZM28.3125 13.1875H31.6875C32.3062 13.1875 32.8125 13.6937 32.8125 14.3125V17.6875C32.8125 18.3062 32.3062 18.8125 31.6875 18.8125H28.3125C27.6938 18.8125 27.1875 18.3062 27.1875 17.6875V14.3125C27.1875 13.6937 27.6938 13.1875 28.3125 13.1875ZM18.1875 23.3125C18.1875 22.6938 18.6937 22.1875 19.3125 22.1875H22.6875C23.3062 22.1875 23.8125 22.6938 23.8125 23.3125V26.6875C23.8125 27.3062 23.3062 27.8125 22.6875 27.8125H19.3125C18.6937 27.8125 18.1875 27.3062 18.1875 26.6875V23.3125ZM28.3125 22.1875H31.6875C32.3062 22.1875 32.8125 22.6938 32.8125 23.3125V26.6875C32.8125 27.3062 32.3062 27.8125 31.6875 27.8125H28.3125C27.6938 27.8125 27.1875 27.3062 27.1875 26.6875V23.3125C27.1875 22.6938 27.6938 22.1875 28.3125 22.1875Z" fill="white"/>
</g>
<defs>
<clipPath id="clip0_26_10">
<rect width="27" height="36" fill="white" transform="translate(12 7)"/>
</clipPath>
</defs>
</svg>
