<svg width="50" height="50" viewBox="0 0 50 50" fill="none" xmlns="http://www.w3.org/2000/svg">
<rect width="50" height="50" fill="#F49D07"/>
<path d="M14.8929 10.4531C14.8929 9.64785 14.248 9 13.4464 9C12.6449 9 12 9.64785 12 10.4531V12.875V30.2217V33.2188V38.5469C12 39.3521 12.6449 40 13.4464 40C14.248 40 14.8929 39.3521 14.8929 38.5469V32.4922L19.7324 31.2752C22.2094 30.6516 24.831 30.9422 27.1152 32.0865C29.779 33.4246 32.8708 33.5881 35.6551 32.5346L37.7464 31.7475C38.4998 31.4629 39 30.7424 39 29.9311V13.0021C39 11.6096 37.5415 10.7014 36.3 11.325L35.7214 11.6156C32.931 13.0203 29.6464 13.0203 26.856 11.6156C24.7406 10.55 22.3118 10.2836 20.0156 10.8588L14.8929 12.1484V10.4531ZM14.8929 15.1455L20.7147 13.6803C22.342 13.2746 24.0596 13.4623 25.5603 14.2131C28.869 15.8721 32.7141 16.0113 36.1071 14.6248V29.265L34.6366 29.816C32.6056 30.5789 30.3455 30.4639 28.4049 29.4891C25.5 28.0299 22.1792 27.6666 19.0272 28.4537L14.8929 29.4951V15.1455Z" fill="white"/>
</svg>
