<svg width="50" height="50" viewBox="0 0 50 50" fill="none" xmlns="http://www.w3.org/2000/svg">
<rect width="50" height="50" fill="#EB742A"/>
<path d="M30.9773 24.584C31.7955 23.377 32.2727 21.9062 32.2727 20.3125C32.2727 16.1699 29.017 12.8125 25 12.8125C20.983 12.8125 17.7273 16.1699 17.7273 20.3125C17.7273 21.9062 18.2045 23.377 19.0227 24.584C19.233 24.8945 19.483 25.2461 19.75 25.6211C20.483 26.6582 21.358 27.9004 22.0114 29.125C22.6023 30.2383 22.9034 31.3984 23.0511 32.4941H20.2841C20.1591 31.791 19.9489 31.1055 19.6136 30.4727C19.0511 29.418 18.3523 28.4277 17.6534 27.4375C17.358 27.0215 17.0625 26.6055 16.7784 26.1836C15.6591 24.5254 15 22.498 15 20.3125C15 14.6172 19.4773 10 25 10C30.5227 10 35 14.6172 35 20.3125C35 22.498 34.3409 24.5254 33.2159 26.1895C32.9318 26.6113 32.6364 27.0273 32.3409 27.4434C31.642 28.4277 30.9432 29.418 30.3807 30.4785C30.0455 31.1113 29.8352 31.7969 29.7102 32.5H26.9545C27.1023 31.4043 27.4034 30.2383 27.9943 29.1309C28.6477 27.9062 29.5227 26.6641 30.2557 25.627C30.5227 25.252 30.767 24.9004 30.9773 24.5898V24.584ZM25 17.5C23.4943 17.5 22.2727 18.7598 22.2727 20.3125C22.2727 20.8281 21.8636 21.25 21.3636 21.25C20.8636 21.25 20.4545 20.8281 20.4545 20.3125C20.4545 17.7227 22.4886 15.625 25 15.625C25.5 15.625 25.9091 16.0469 25.9091 16.5625C25.9091 17.0781 25.5 17.5 25 17.5ZM25 40C22.4886 40 20.4545 37.9023 20.4545 35.3125V34.375H29.5455V35.3125C29.5455 37.9023 27.5114 40 25 40Z" fill="white"/>
</svg>
